STARTFONT 2.1
FONT screen.r.7
SIZE 7 80 80
FONTBOUNDINGBOX 6 6 0 -2
STARTPROPERTIES 4
FONT_ASCENT 6
FONT_DESCENT 2
DEFAULT_CHAR 32
COPYRIGHT "Derived from a vfont"
ENDPROPERTIES
CHARS 95
STARTCHAR H20
ENCODING 32
SWIDTH 771 0
DWIDTH 6 0
BBX 6 8 0 -2
BITMAP
00
00
00
00
00
00
00
00
ENDCHAR
STARTCHAR H21
ENCODING 33
SWIDTH 771 0
DWIDTH 6 0
BBX 6 8 0 -2
BITMAP
10
10
10
10
00
10
00
00
ENDCHAR
STARTCHAR H22
ENCODING 34
SWIDTH 771 0
DWIDTH 6 0
BBX 6 8 0 -2
BITMAP
28
28
28
00
00
00
00
00
ENDCHAR
STARTCHAR H23
ENCODING 35
SWIDTH 771 0
DWIDTH 6 0
BBX 6 8 0 -2
BITMAP
28
7c
28
28
7c
28
00
00
ENDCHAR
STARTCHAR H24
ENCODING 36
SWIDTH 771 0
DWIDTH 6 0
BBX 6 8 0 -2
BITMAP
10
3c
50
38
14
78
10
00
ENDCHAR
STARTCHAR H25
ENCODING 37
SWIDTH 771 0
DWIDTH 6 0
BBX 6 8 0 -2
BITMAP
7c
64
08
10
2c
4c
00
00
ENDCHAR
STARTCHAR H26
ENCODING 38
SWIDTH 771 0
DWIDTH 6 0
BBX 6 8 0 -2
BITMAP
30
50
20
54
48
74
00
00
ENDCHAR
STARTCHAR H27
ENCODING 39
SWIDTH 771 0
DWIDTH 6 0
BBX 6 8 0 -2
BITMAP
08
08
10
00
00
00
00
00
ENDCHAR
STARTCHAR H28
ENCODING 40
SWIDTH 771 0
DWIDTH 6 0
BBX 6 8 0 -2
BITMAP
10
20
40
40
40
20
10
00
ENDCHAR
STARTCHAR H29
ENCODING 41
SWIDTH 771 0
DWIDTH 6 0
BBX 6 8 0 -2
BITMAP
20
10
08
08
08
10
20
00
ENDCHAR
STARTCHAR H2a
ENCODING 42
SWIDTH 771 0
DWIDTH 6 0
BBX 6 8 0 -2
BITMAP
00
54
38
6c
38
54
00
00
ENDCHAR
STARTCHAR H2b
ENCODING 43
SWIDTH 771 0
DWIDTH 6 0
BBX 6 8 0 -2
BITMAP
00
10
10
7c
10
10
00
00
ENDCHAR
STARTCHAR H2c
ENCODING 44
SWIDTH 771 0
DWIDTH 6 0
BBX 6 8 0 -2
BITMAP
00
00
00
00
10
10
20
00
ENDCHAR
STARTCHAR H2d
ENCODING 45
SWIDTH 771 0
DWIDTH 6 0
BBX 6 8 0 -2
BITMAP
00
00
00
78
00
00
00
00
ENDCHAR
STARTCHAR H2e
ENCODING 46
SWIDTH 771 0
DWIDTH 6 0
BBX 6 8 0 -2
BITMAP
00
00
00
00
10
10
00
00
ENDCHAR
STARTCHAR H2f
ENCODING 47
SWIDTH 771 0
DWIDTH 6 0
BBX 6 8 0 -2
BITMAP
08
10
10
20
20
40
00
00
ENDCHAR
STARTCHAR H30
ENCODING 48
SWIDTH 771 0
DWIDTH 6 0
BBX 6 8 0 -2
BITMAP
30
48
58
68
48
30
00
00
ENDCHAR
STARTCHAR H31
ENCODING 49
SWIDTH 771 0
DWIDTH 6 0
BBX 6 8 0 -2
BITMAP
10
30
10
10
10
38
00
00
ENDCHAR
STARTCHAR H32
ENCODING 50
SWIDTH 771 0
DWIDTH 6 0
BBX 6 8 0 -2
BITMAP
30
48
08
30
40
78
00
00
ENDCHAR
STARTCHAR H33
ENCODING 51
SWIDTH 771 0
DWIDTH 6 0
BBX 6 8 0 -2
BITMAP
30
48
10
08
48
30
00
00
ENDCHAR
STARTCHAR H34
ENCODING 52
SWIDTH 771 0
DWIDTH 6 0
BBX 6 8 0 -2
BITMAP
10
30
50
78
10
10
00
00
ENDCHAR
STARTCHAR H35
ENCODING 53
SWIDTH 771 0
DWIDTH 6 0
BBX 6 8 0 -2
BITMAP
78
40
70
08
48
30
00
00
ENDCHAR
STARTCHAR H36
ENCODING 54
SWIDTH 771 0
DWIDTH 6 0
BBX 6 8 0 -2
BITMAP
30
40
70
48
48
30
00
00
ENDCHAR
STARTCHAR H37
ENCODING 55
SWIDTH 771 0
DWIDTH 6 0
BBX 6 8 0 -2
BITMAP
78
08
10
10
20
20
00
00
ENDCHAR
STARTCHAR H38
ENCODING 56
SWIDTH 771 0
DWIDTH 6 0
BBX 6 8 0 -2
BITMAP
30
48
30
48
48
30
00
00
ENDCHAR
STARTCHAR H39
ENCODING 57
SWIDTH 771 0
DWIDTH 6 0
BBX 6 8 0 -2
BITMAP
30
48
48
38
08
30
00
00
ENDCHAR
STARTCHAR H3a
ENCODING 58
SWIDTH 771 0
DWIDTH 6 0
BBX 6 8 0 -2
BITMAP
00
10
10
00
10
10
00
00
ENDCHAR
STARTCHAR H3b
ENCODING 59
SWIDTH 771 0
DWIDTH 6 0
BBX 6 8 0 -2
BITMAP
00
20
20
00
20
20
40
00
ENDCHAR
STARTCHAR H3c
ENCODING 60
SWIDTH 771 0
DWIDTH 6 0
BBX 6 8 0 -2
BITMAP
00
08
10
20
10
08
00
00
ENDCHAR
STARTCHAR H3d
ENCODING 61
SWIDTH 771 0
DWIDTH 6 0
BBX 6 8 0 -2
BITMAP
00
00
78
00
78
00
00
00
ENDCHAR
STARTCHAR H3e
ENCODING 62
SWIDTH 771 0
DWIDTH 6 0
BBX 6 8 0 -2
BITMAP
00
20
10
08
10
20
00
00
ENDCHAR
STARTCHAR H3f
ENCODING 63
SWIDTH 771 0
DWIDTH 6 0
BBX 6 8 0 -2
BITMAP
30
48
08
30
00
20
00
00
ENDCHAR
STARTCHAR H40
ENCODING 64
SWIDTH 771 0
DWIDTH 6 0
BBX 6 8 0 -2
BITMAP
38
44
5c
5c
40
38
00
00
ENDCHAR
STARTCHAR H41
ENCODING 65
SWIDTH 771 0
DWIDTH 6 0
BBX 6 8 0 -2
BITMAP
30
48
48
78
48
48
00
00
ENDCHAR
STARTCHAR H42
ENCODING 66
SWIDTH 771 0
DWIDTH 6 0
BBX 6 8 0 -2
BITMAP
70
48
70
48
48
70
00
00
ENDCHAR
STARTCHAR H43
ENCODING 67
SWIDTH 771 0
DWIDTH 6 0
BBX 6 8 0 -2
BITMAP
30
48
40
40
48
30
00
00
ENDCHAR
STARTCHAR H44
ENCODING 68
SWIDTH 771 0
DWIDTH 6 0
BBX 6 8 0 -2
BITMAP
70
48
48
48
48
70
00
00
ENDCHAR
STARTCHAR H45
ENCODING 69
SWIDTH 771 0
DWIDTH 6 0
BBX 6 8 0 -2
BITMAP
78
40
70
40
40
78
00
00
ENDCHAR
STARTCHAR H46
ENCODING 70
SWIDTH 771 0
DWIDTH 6 0
BBX 6 8 0 -2
BITMAP
78
40
70
40
40
40
00
00
ENDCHAR
STARTCHAR H47
ENCODING 71
SWIDTH 771 0
DWIDTH 6 0
BBX 6 8 0 -2
BITMAP
30
48
40
58
48
30
00
00
ENDCHAR
STARTCHAR H48
ENCODING 72
SWIDTH 771 0
DWIDTH 6 0
BBX 6 8 0 -2
BITMAP
48
48
78
48
48
48
00
00
ENDCHAR
STARTCHAR H49
ENCODING 73
SWIDTH 771 0
DWIDTH 6 0
BBX 6 8 0 -2
BITMAP
38
10
10
10
10
38
00
00
ENDCHAR
STARTCHAR H4a
ENCODING 74
SWIDTH 771 0
DWIDTH 6 0
BBX 6 8 0 -2
BITMAP
38
08
08
08
48
30
00
00
ENDCHAR
STARTCHAR H4b
ENCODING 75
SWIDTH 771 0
DWIDTH 6 0
BBX 6 8 0 -2
BITMAP
44
48
50
70
48
44
00
00
ENDCHAR
STARTCHAR H4c
ENCODING 76
SWIDTH 771 0
DWIDTH 6 0
BBX 6 8 0 -2
BITMAP
40
40
40
40
40
78
00
00
ENDCHAR
STARTCHAR H4d
ENCODING 77
SWIDTH 771 0
DWIDTH 6 0
BBX 6 8 0 -2
BITMAP
44
6c
54
54
44
44
00
00
ENDCHAR
STARTCHAR H4e
ENCODING 78
SWIDTH 771 0
DWIDTH 6 0
BBX 6 8 0 -2
BITMAP
44
64
54
4c
44
44
00
00
ENDCHAR
STARTCHAR H4f
ENCODING 79
SWIDTH 771 0
DWIDTH 6 0
BBX 6 8 0 -2
BITMAP
30
48
48
48
48
30
00
00
ENDCHAR
STARTCHAR H50
ENCODING 80
SWIDTH 771 0
DWIDTH 6 0
BBX 6 8 0 -2
BITMAP
70
48
48
70
40
40
00
00
ENDCHAR
STARTCHAR H51
ENCODING 81
SWIDTH 771 0
DWIDTH 6 0
BBX 6 8 0 -2
BITMAP
38
44
44
54
4c
38
04
00
ENDCHAR
STARTCHAR H52
ENCODING 82
SWIDTH 771 0
DWIDTH 6 0
BBX 6 8 0 -2
BITMAP
70
48
48
70
50
48
00
00
ENDCHAR
STARTCHAR H53
ENCODING 83
SWIDTH 771 0
DWIDTH 6 0
BBX 6 8 0 -2
BITMAP
30
48
20
10
48
30
00
00
ENDCHAR
STARTCHAR H54
ENCODING 84
SWIDTH 771 0
DWIDTH 6 0
BBX 6 8 0 -2
BITMAP
7c
10
10
10
10
10
00
00
ENDCHAR
STARTCHAR H55
ENCODING 85
SWIDTH 771 0
DWIDTH 6 0
BBX 6 8 0 -2
BITMAP
48
48
48
48
48
30
00
00
ENDCHAR
STARTCHAR H56
ENCODING 86
SWIDTH 771 0
DWIDTH 6 0
BBX 6 8 0 -2
BITMAP
44
44
44
28
28
10
00
00
ENDCHAR
STARTCHAR H57
ENCODING 87
SWIDTH 771 0
DWIDTH 6 0
BBX 6 8 0 -2
BITMAP
44
44
54
54
6c
44
00
00
ENDCHAR
STARTCHAR H58
ENCODING 88
SWIDTH 771 0
DWIDTH 6 0
BBX 6 8 0 -2
BITMAP
44
28
10
28
44
44
00
00
ENDCHAR
STARTCHAR H59
ENCODING 89
SWIDTH 771 0
DWIDTH 6 0
BBX 6 8 0 -2
BITMAP
44
44
38
10
10
10
00
00
ENDCHAR
STARTCHAR H5a
ENCODING 90
SWIDTH 771 0
DWIDTH 6 0
BBX 6 8 0 -2
BITMAP
78
08
10
20
40
78
00
00
ENDCHAR
STARTCHAR H5b
ENCODING 91
SWIDTH 771 0
DWIDTH 6 0
BBX 6 8 0 -2
BITMAP
38
20
20
20
20
20
38
00
ENDCHAR
STARTCHAR H5c
ENCODING 92
SWIDTH 771 0
DWIDTH 6 0
BBX 6 8 0 -2
BITMAP
40
20
20
10
10
08
00
00
ENDCHAR
STARTCHAR H5d
ENCODING 93
SWIDTH 771 0
DWIDTH 6 0
BBX 6 8 0 -2
BITMAP
38
08
08
08
08
08
38
00
ENDCHAR
STARTCHAR H5e
ENCODING 94
SWIDTH 771 0
DWIDTH 6 0
BBX 6 8 0 -2
BITMAP
10
28
44
00
00
00
00
00
ENDCHAR
STARTCHAR H5f
ENCODING 95
SWIDTH 771 0
DWIDTH 6 0
BBX 6 8 0 -2
BITMAP
00
00
00
00
00
00
78
00
ENDCHAR
STARTCHAR H60
ENCODING 96
SWIDTH 771 0
DWIDTH 6 0
BBX 6 8 0 -2
BITMAP
10
10
08
00
00
00
00
00
ENDCHAR
STARTCHAR H61
ENCODING 97
SWIDTH 771 0
DWIDTH 6 0
BBX 6 8 0 -2
BITMAP
00
30
08
38
48
28
00
00
ENDCHAR
STARTCHAR H62
ENCODING 98
SWIDTH 771 0
DWIDTH 6 0
BBX 6 8 0 -2
BITMAP
40
70
48
48
48
70
00
00
ENDCHAR
STARTCHAR H63
ENCODING 99
SWIDTH 771 0
DWIDTH 6 0
BBX 6 8 0 -2
BITMAP
00
38
40
40
40
38
00
00
ENDCHAR
STARTCHAR H64
ENCODING 100
SWIDTH 771 0
DWIDTH 6 0
BBX 6 8 0 -2
BITMAP
08
38
48
48
48
38
00
00
ENDCHAR
STARTCHAR H65
ENCODING 101
SWIDTH 771 0
DWIDTH 6 0
BBX 6 8 0 -2
BITMAP
00
30
48
70
40
38
00
00
ENDCHAR
STARTCHAR H66
ENCODING 102
SWIDTH 771 0
DWIDTH 6 0
BBX 6 8 0 -2
BITMAP
18
20
70
20
20
20
00
00
ENDCHAR
STARTCHAR H67
ENCODING 103
SWIDTH 771 0
DWIDTH 6 0
BBX 6 8 0 -2
BITMAP
00
38
48
48
38
08
70
00
ENDCHAR
STARTCHAR H68
ENCODING 104
SWIDTH 771 0
DWIDTH 6 0
BBX 6 8 0 -2
BITMAP
40
50
68
48
48
48
00
00
ENDCHAR
STARTCHAR H69
ENCODING 105
SWIDTH 771 0
DWIDTH 6 0
BBX 6 8 0 -2
BITMAP
10
00
30
10
10
10
00
00
ENDCHAR
STARTCHAR H6a
ENCODING 106
SWIDTH 771 0
DWIDTH 6 0
BBX 6 8 0 -2
BITMAP
10
00
30
10
10
10
60
00
ENDCHAR
STARTCHAR H6b
ENCODING 107
SWIDTH 771 0
DWIDTH 6 0
BBX 6 8 0 -2
BITMAP
40
48
50
60
50
48
00
00
ENDCHAR
STARTCHAR H6c
ENCODING 108
SWIDTH 771 0
DWIDTH 6 0
BBX 6 8 0 -2
BITMAP
30
10
10
10
10
10
00
00
ENDCHAR
STARTCHAR H6d
ENCODING 109
SWIDTH 771 0
DWIDTH 6 0
BBX 6 8 0 -2
BITMAP
00
68
54
54
54
54
00
00
ENDCHAR
STARTCHAR H6e
ENCODING 110
SWIDTH 771 0
DWIDTH 6 0
BBX 6 8 0 -2
BITMAP
00
50
68
48
48
48
00
00
ENDCHAR
STARTCHAR H6f
ENCODING 111
SWIDTH 771 0
DWIDTH 6 0
BBX 6 8 0 -2
BITMAP
00
30
48
48
48
30
00
00
ENDCHAR
STARTCHAR H70
ENCODING 112
SWIDTH 771 0
DWIDTH 6 0
BBX 6 8 0 -2
BITMAP
00
50
68
48
68
50
40
00
ENDCHAR
STARTCHAR H71
ENCODING 113
SWIDTH 771 0
DWIDTH 6 0
BBX 6 8 0 -2
BITMAP
00
28
58
48
58
28
08
00
ENDCHAR
STARTCHAR H72
ENCODING 114
SWIDTH 771 0
DWIDTH 6 0
BBX 6 8 0 -2
BITMAP
00
50
68
40
40
40
00
00
ENDCHAR
STARTCHAR H73
ENCODING 115
SWIDTH 771 0
DWIDTH 6 0
BBX 6 8 0 -2
BITMAP
00
38
40
30
08
70
00
00
ENDCHAR
STARTCHAR H74
ENCODING 116
SWIDTH 771 0
DWIDTH 6 0
BBX 6 8 0 -2
BITMAP
20
78
20
20
20
18
00
00
ENDCHAR
STARTCHAR H75
ENCODING 117
SWIDTH 771 0
DWIDTH 6 0
BBX 6 8 0 -2
BITMAP
00
48
48
48
58
28
00
00
ENDCHAR
STARTCHAR H76
ENCODING 118
SWIDTH 771 0
DWIDTH 6 0
BBX 6 8 0 -2
BITMAP
00
44
44
28
28
10
00
00
ENDCHAR
STARTCHAR H77
ENCODING 119
SWIDTH 771 0
DWIDTH 6 0
BBX 6 8 0 -2
BITMAP
00
44
44
54
54
28
00
00
ENDCHAR
STARTCHAR H78
ENCODING 120
SWIDTH 771 0
DWIDTH 6 0
BBX 6 8 0 -2
BITMAP
00
44
28
10
28
44
00
00
ENDCHAR
STARTCHAR H79
ENCODING 121
SWIDTH 771 0
DWIDTH 6 0
BBX 6 8 0 -2
BITMAP
00
48
48
48
38
08
70
00
ENDCHAR
STARTCHAR H7a
ENCODING 122
SWIDTH 771 0
DWIDTH 6 0
BBX 6 8 0 -2
BITMAP
00
78
08
10
20
78
00
00
ENDCHAR
STARTCHAR H7b
ENCODING 123
SWIDTH 771 0
DWIDTH 6 0
BBX 6 8 0 -2
BITMAP
18
20
20
40
20
20
18
00
ENDCHAR
STARTCHAR H7c
ENCODING 124
SWIDTH 771 0
DWIDTH 6 0
BBX 6 8 0 -2
BITMAP
10
10
10
10
10
10
10
00
ENDCHAR
STARTCHAR H7d
ENCODING 125
SWIDTH 771 0
DWIDTH 6 0
BBX 6 8 0 -2
BITMAP
60
10
10
08
10
10
60
00
ENDCHAR
STARTCHAR H7e
ENCODING 126
SWIDTH 771 0
DWIDTH 6 0
BBX 6 8 0 -2
BITMAP
00
20
54
08
00
00
00
00
ENDCHAR
ENDFONT
